<svg width="225" height="176" viewBox="0 0 225 176" fill="none" xmlns="http://www.w3.org/2000/svg">
<path d="M67.5062 0.00393097L16.2177 19.5481L31.842 60.55L83.1305 41.0059L67.5062 0.00393097Z" fill="#FAFAFA"/>
<path d="M67.5096 0L67.2644 0.0959549L66.5501 0.373158L63.7727 1.43932L53.287 5.45876L16.2485 19.6334L16.2964 19.5268L31.9317 60.5208L31.8091 60.4675L83.1076 40.9567L83.065 41.0527C78.3685 28.6905 74.4823 18.4446 71.7636 11.2853C70.4043 7.70304 69.3434 4.88836 68.6131 2.9746C68.2559 2.01505 67.9787 1.2794 67.7868 0.78363L67.5096 0.0266537C67.5096 0.0266537 67.6109 0.271872 67.7975 0.762308C67.9841 1.25274 68.2719 1.98306 68.6344 2.93195C69.3701 4.84038 70.4416 7.6444 71.8329 11.216C74.557 18.354 78.4751 28.6052 83.2302 40.9567V41.0313H83.1609L31.8784 60.5901L31.7878 60.6221L31.7558 60.5368L16.1418 19.5748V19.4948L16.2165 19.4682L53.335 5.36814L63.8207 1.39134L66.5874 0.32518L67.2964 0.0639703L67.5096 0Z" fill="#E0E0E0"/>
<path d="M66.6609 3.32484L18.9739 21.4966L32.6317 57.3378L80.3187 39.166L66.6609 3.32484Z" fill="#E9EEFA"/>
<path d="M178.051 6.62642L168.597 30.3696L198.294 42.1933L207.747 18.45L178.051 6.62642Z" fill="#FAFAFA"/>
<path d="M207.747 18.4504L207.603 18.3971L207.187 18.2318L205.588 17.5975L199.511 15.1933L178.049 6.66395L178.108 6.63196C175.298 13.7006 172.073 21.8035 168.661 30.3754L168.635 30.3008L198.327 42.1352L198.269 42.1619C201.126 35.0079 203.493 29.08 205.151 24.938C205.977 22.8696 206.628 21.2437 207.075 20.1403C207.299 19.6072 207.47 19.1647 207.582 18.8769L207.763 18.4397L207.598 18.8715C207.48 19.1594 207.315 19.5805 207.102 20.1296C206.659 21.2384 206.036 22.8643 205.199 24.9273C203.552 29.08 201.195 35.0239 198.349 42.1939V42.2365H198.306L168.576 30.4181H168.528V30.3701C171.94 21.7981 175.17 13.6953 177.985 6.63196V6.58398H178.028L199.543 15.1559L205.604 17.5868L207.203 18.2265L207.608 18.3918L207.747 18.4504Z" fill="#E0E0E0"/>
<path d="M178.459 8.55022L170.197 29.302L197.808 40.2954L206.071 19.5437L178.459 8.55022Z" fill="#E9EEFA"/>
<path d="M170.309 29.3676L185.086 20.3052L187.847 30.7536L193.615 28.0562L197.917 40.3597L170.309 29.3676Z" fill="#C2D4FB"/>
<path d="M107.026 37.9216L95.7036 91.0986L162.218 105.261L173.54 52.084L107.026 37.9216Z" fill="#FAFAFA"/>
<path d="M173.545 52.0769L173.225 52.0182L172.292 51.8263L168.683 51.0853L155.068 48.212L107.005 38.0195L107.128 37.9395C103.759 53.7667 99.9048 71.9129 95.816 91.1145L95.7307 90.9759L162.243 105.156L162.126 105.231L170.394 66.6513L172.708 55.8831C172.98 54.6463 173.182 53.6975 173.326 53.0524C173.47 52.4074 173.545 52.0715 173.545 52.0715C173.545 52.0715 173.481 52.3967 173.347 53.0364L172.788 55.8831C172.255 58.3672 171.498 62.0029 170.522 66.6407C168.555 75.9376 165.724 89.2434 162.339 105.3V105.39H162.243L95.6828 91.2051H95.5708V91.0932C99.6649 71.9022 103.53 53.7454 106.904 37.9235V37.8223H107.005L155.111 48.1161L168.694 51.0374L172.276 51.8103L173.193 52.0129L173.545 52.0769Z" fill="#E0E0E0"/>
<path d="M108.614 41.7543L98.7167 88.2366L160.559 101.404L170.456 54.9219L108.614 41.7543Z" fill="#EBEBEB"/>
<path d="M98.7109 88.2359L126.463 63.9434L135.995 84.8668L147.125 77.1371L160.554 101.403L98.7109 88.2359Z" fill="#E0E0E0"/>
<path d="M146.278 64.4603C146.072 65.423 145.585 66.303 144.879 66.9891C144.173 67.6752 143.279 68.1366 142.311 68.315C141.343 68.4934 140.343 68.3807 139.439 67.9913C138.535 67.6019 137.767 66.9531 137.231 66.127C136.695 65.301 136.417 64.3347 136.43 63.3503C136.444 62.3659 136.749 61.4076 137.307 60.5965C137.865 59.7854 138.651 59.1579 139.565 58.7934C140.48 58.4288 141.482 58.3436 142.445 58.5484C143.737 58.8247 144.866 59.6025 145.585 60.7111C146.303 61.8196 146.553 63.1681 146.278 64.4603Z" fill="#E0E0E0"/>
<path d="M42.2507 44.1355L46.1209 110.115C46.1874 111.247 46.6834 112.311 47.5076 113.09C48.3319 113.868 49.4222 114.303 50.5561 114.305L169.305 114.668C169.891 114.67 170.471 114.557 171.012 114.335C171.554 114.112 172.046 113.786 172.461 113.374C172.877 112.961 173.207 112.471 173.433 111.931C173.659 111.391 173.776 110.812 173.778 110.227L173.933 58.8593C173.935 58.2718 173.821 57.6897 173.597 57.1464C173.373 56.6032 173.044 56.1095 172.629 55.6939C172.214 55.2782 171.721 54.9487 171.178 54.7244C170.635 54.5001 170.053 54.3853 169.465 54.3867L96.4331 54.6372C95.2538 54.6399 94.1213 54.1762 93.2826 53.3472L80.6273 40.8038C79.7977 39.9773 78.6744 39.5134 77.5034 39.5137L46.7179 39.4178C46.1091 39.4153 45.5063 39.5375 44.9466 39.777C44.3868 40.0165 43.8821 40.3681 43.4636 40.8101C43.045 41.2522 42.7214 41.7753 42.5128 42.3472C42.3042 42.9192 42.215 43.5278 42.2507 44.1355Z" fill="#C2D4FB"/>
<g opacity="0.5">
<path d="M42.2507 44.1355L46.1209 110.115C46.1874 111.247 46.6834 112.311 47.5076 113.09C48.3319 113.868 49.4222 114.303 50.5561 114.305L169.305 114.668C169.891 114.67 170.471 114.557 171.012 114.335C171.554 114.112 172.046 113.786 172.461 113.374C172.877 112.961 173.207 112.471 173.433 111.931C173.659 111.391 173.776 110.812 173.778 110.227L173.933 58.8593C173.935 58.2718 173.821 57.6897 173.597 57.1464C173.373 56.6032 173.044 56.1095 172.629 55.6939C172.214 55.2782 171.721 54.9487 171.178 54.7244C170.635 54.5001 170.053 54.3853 169.465 54.3867L96.4331 54.6372C95.2538 54.6399 94.1213 54.1762 93.2826 53.3472L80.6273 40.8038C79.7977 39.9773 78.6744 39.5134 77.5034 39.5137L46.7179 39.4178C46.1091 39.4153 45.5063 39.5375 44.9466 39.777C44.3868 40.0165 43.8821 40.3681 43.4636 40.8101C43.045 41.2522 42.7214 41.7753 42.5128 42.3472C42.3042 42.9192 42.215 43.5278 42.2507 44.1355Z" fill="#C2D4FB"/>
</g>
<path d="M109.777 56.0386L35.7509 63.8713L42.0131 123.054L116.039 115.222L109.777 56.0386Z" fill="#FAFAFA"/>
<path d="M109.781 56.0286L109.43 56.0712L108.395 56.1885L104.381 56.6256L89.2151 58.2728L35.7683 63.9875L35.8802 63.8489C37.7513 81.4406 39.8943 101.655 42.1599 123.021L42.0107 122.898L116.034 115.083L115.933 115.211C114.073 97.3744 112.527 82.5921 111.445 72.2609C110.912 67.09 110.49 63.0333 110.208 60.2666C110.064 58.8859 109.957 57.8251 109.883 57.1054C109.808 56.3857 109.781 56.0392 109.781 56.0392C109.781 56.0392 109.829 56.3964 109.909 57.1054C109.989 57.8144 110.101 58.8699 110.251 60.2452C110.554 63.0013 110.991 67.0474 111.551 72.2023C112.66 82.5494 114.249 97.3531 116.162 115.211V115.323H116.045L42.0373 123.186H41.8987V123.048C39.6438 101.682 37.5115 81.4672 35.651 63.8755V63.7529H35.7736L89.3377 58.1449L104.456 56.5457L108.406 56.1405L109.43 56.0392L109.781 56.0286Z" fill="#263238"/>
<path d="M107.521 60.04L38.6953 67.3225L44.1688 119.052L112.995 111.769L107.521 60.04Z" fill="#C2D4FB"/>
<path opacity="0.7" d="M107.521 60.04L38.6953 67.3225L44.1688 119.052L112.995 111.769L107.521 60.04Z" fill="#FAFAFA"/>
<path d="M44.18 119.05L64.8156 84.3521L81.8369 102.893L90.798 91.0689L113.006 111.763L44.18 119.05Z" fill="#C2D4FB"/>
<path d="M18.0212 109.616L16.3722 149.627L66.4181 151.69L68.0671 111.679L18.0212 109.616Z" fill="#FAFAFA"/>
<path d="M68.0567 111.661H67.8168H67.1131L64.3944 111.56L54.1486 111.176L18.0109 109.747L18.1389 109.63C17.6538 121.539 17.0727 135.192 16.5076 149.638L16.3744 149.494L66.4201 151.562L66.2975 151.674C66.8306 139.627 67.2517 129.637 67.5502 122.653C67.7102 119.162 67.8328 116.422 67.9127 114.545C67.9607 113.618 67.9927 112.898 68.014 112.413C68.0353 111.928 68.0567 111.672 68.0567 111.672C68.0567 111.672 68.0567 111.912 68.0567 112.392C68.0567 112.871 68.014 113.586 67.982 114.524C67.9127 116.395 67.8114 119.124 67.6835 122.611C67.4063 129.61 67.0172 139.621 66.5427 151.701V151.818H66.4254L16.3637 149.75H16.2251V149.611C16.8221 135.165 17.3925 121.513 17.883 109.604V109.481H18.0056L54.2338 111.048L64.4477 111.501L67.1451 111.624L67.8328 111.661H68.0567Z" fill="#263238"/>
<path d="M19.6416 112.203L18.2003 147.175L64.7309 149.093L66.1722 114.12L19.6416 112.203Z" fill="#C2D4FB"/>
<path opacity="0.7" d="M19.6416 112.203L18.2003 147.175L64.7309 149.093L66.1722 114.12L19.6416 112.203Z" fill="#FAFAFA"/>
<path d="M18.1985 147.165L35.3424 126.097L44.8526 140.112L51.9799 133.118L64.7259 149.078L18.1985 147.165Z" fill="#C2D4FB"/>
<path d="M167.201 44.1521L92.7783 45.75L94.0558 105.25L168.478 103.652L167.201 44.1521Z" fill="#FAFAFA"/>
<path d="M167.2 44.1463H166.842L165.803 44.1729L161.768 44.2742L146.537 44.6367L92.7814 45.8521L92.904 45.7242C93.2878 63.4332 93.7303 83.7383 94.194 105.216L94.0555 105.078L168.479 103.478L168.362 103.601C168.005 85.668 167.706 70.8111 167.498 60.4213C167.397 55.2237 167.317 51.1457 167.269 48.3683C167.242 46.977 167.226 45.9108 167.21 45.1698C167.194 44.4288 167.21 44.0717 167.21 44.0717C167.21 44.0717 167.21 44.4342 167.248 45.1378C167.285 45.8415 167.29 46.913 167.328 48.2937C167.397 51.0657 167.493 55.1331 167.615 60.32C167.855 70.7204 168.197 85.6041 168.607 103.564V103.676H168.49L94.0714 105.275H93.9328V105.136C93.4797 83.653 93.0479 63.3479 92.6694 45.6389V45.5163H92.792L146.633 44.4182L161.837 44.125L165.846 44.0557H166.874L167.2 44.1463Z" fill="#263238"/>
<path d="M164.616 47.956L95.4221 49.4417L96.5387 101.448L165.733 99.9622L164.616 47.956Z" fill="#C2D4FB"/>
<path opacity="0.7" d="M164.616 47.956L95.4221 49.4417L96.5387 101.448L165.733 99.9622L164.616 47.956Z" fill="#FAFAFA"/>
<path d="M96.5447 101.442L120.016 68.5986L135.422 88.4986L145.343 77.4691L165.733 99.9545L96.5447 101.442Z" fill="#C2D4FB"/>
<path d="M141.254 64.1795C141.277 65.2567 140.98 66.3165 140.401 67.2249C139.822 68.1333 138.986 68.8496 138 69.2831C137.013 69.7166 135.921 69.848 134.86 69.6605C133.799 69.473 132.817 68.9752 132.039 68.2299C131.261 67.4846 130.721 66.5254 130.488 65.4734C130.255 64.4215 130.34 63.3241 130.73 62.32C131.121 61.3159 131.801 60.4502 132.683 59.8323C133.566 59.2144 134.612 58.8721 135.689 58.8487C136.405 58.8331 137.116 58.9587 137.783 59.2182C138.45 59.4777 139.059 59.8661 139.576 60.3611C140.093 60.8562 140.507 61.4482 140.795 62.1033C141.083 62.7585 141.239 63.464 141.254 64.1795Z" fill="#C2D4FB"/>
<path d="M196.364 57.6866C196.082 57.6866 195.81 57.7989 195.61 57.9988C195.41 58.1988 195.298 58.47 195.298 58.7527C195.298 58.8978 195.327 59.0414 195.385 59.1747C195.442 59.3081 195.526 59.4283 195.631 59.5281C195.736 59.6279 195.861 59.7052 195.997 59.7552C196.133 59.8052 196.278 59.8269 196.423 59.8189C196.575 59.7981 196.722 59.747 196.855 59.6686C196.987 59.5902 197.102 59.486 197.194 59.3623C197.285 59.2385 197.351 59.0977 197.387 58.9482C197.423 58.7986 197.429 58.6433 197.404 58.4915C197.372 58.3439 197.309 58.2047 197.22 58.0832C197.13 57.9616 197.016 57.8605 196.885 57.7864C196.753 57.7123 196.607 57.667 196.457 57.6535C196.307 57.6399 196.155 57.6585 196.012 57.7079" fill="#FAFAFA"/>
<path d="M105.734 35.4332L102.781 107.083L192.402 110.776L195.354 39.1267L105.734 35.4332Z" fill="#FAFAFA"/>
<path d="M195.341 39.1142H194.914L193.662 39.0715L188.8 38.885L170.467 38.1653L105.741 35.5532L105.868 35.4306C105 56.7539 103.997 81.2063 102.937 107.077L102.803 106.933L192.425 110.664L192.308 110.776C193.219 89.1813 193.976 71.2857 194.504 58.7796C194.776 52.5265 194.984 47.6168 195.133 44.2691C195.208 42.6005 195.261 41.3158 195.304 40.4469C195.346 39.578 195.368 39.1302 195.368 39.1302C195.368 39.1302 195.368 39.5673 195.33 40.4256C195.293 41.2838 195.245 42.5579 195.186 44.2264C195.053 47.5689 194.861 52.4679 194.616 58.7156C194.12 71.2377 193.401 89.1599 192.537 110.787V110.899H192.42L102.798 107.231H102.659V107.093C103.725 81.2223 104.738 56.7752 105.623 35.4519V35.324H105.741L170.553 38.016L188.859 38.805L193.688 39.0182L194.93 39.0769L195.341 39.1142Z" fill="#263238"/>
<path d="M108.635 40.0789L106.054 102.706L189.378 106.14L191.959 43.513L108.635 40.0789Z" fill="#C2D4FB"/>
<path opacity="0.7" d="M108.635 40.0789L106.054 102.706L189.378 106.14L191.959 43.513L108.635 40.0789Z" fill="#FAFAFA"/>
<path d="M106.05 102.694L136.75 64.9629L153.776 90.0604L166.544 77.5436L189.37 106.122L106.05 102.694Z" fill="#C2D4FB"/>
<path d="M39.8205 80.2468L49.4853 161.158C49.5674 161.853 49.9013 162.494 50.4238 162.96C50.9464 163.425 51.6214 163.683 52.3213 163.685L178.774 164.074C179.494 164.074 180.188 163.803 180.718 163.315C181.249 162.828 181.576 162.158 181.636 161.441L188.247 80.604C188.279 80.2101 188.229 79.8139 188.101 79.4401C187.973 79.0663 187.769 78.7232 187.501 78.4323C187.234 78.1413 186.909 77.9089 186.547 77.7496C186.186 77.5903 185.795 77.5076 185.4 77.5068L42.6778 77.043C42.2721 77.0417 41.8707 77.1265 41.5001 77.2918C41.1296 77.4572 40.7984 77.6992 40.5283 78.002C40.2583 78.3048 40.0555 78.6615 39.9335 79.0485C39.8115 79.4354 39.773 79.8439 39.8205 80.2468Z" fill="#C2D4FB"/>
<path opacity="0.3" d="M39.8205 80.2468L49.4853 161.158C49.5674 161.853 49.9013 162.494 50.4238 162.96C50.9464 163.425 51.6214 163.683 52.3213 163.685L178.774 164.074C179.494 164.074 180.188 163.803 180.718 163.315C181.249 162.828 181.576 162.158 181.636 161.441L188.247 80.604C188.279 80.2101 188.229 79.8139 188.101 79.4401C187.973 79.0663 187.769 78.7232 187.501 78.4323C187.234 78.1413 186.909 77.9089 186.547 77.7496C186.186 77.5903 185.795 77.5076 185.4 77.5068L42.6778 77.043C42.2721 77.0417 41.8707 77.1265 41.5001 77.2918C41.1296 77.4572 40.7984 77.6992 40.5283 78.002C40.2583 78.3048 40.0555 78.6615 39.9335 79.0485C39.8115 79.4354 39.773 79.8439 39.8205 80.2468Z" fill="#C2D4FB"/>
<path d="M100.842 109.969C100.07 109.997 99.3389 110.327 98.8074 110.888C98.2758 111.449 97.9858 112.197 97.9998 112.97C98.0138 113.743 98.3307 114.479 98.8822 115.021C99.4338 115.562 100.176 115.866 100.949 115.866C101.722 115.866 102.464 115.562 103.016 115.021C103.567 114.479 103.884 113.743 103.898 112.97C103.912 112.197 103.622 111.449 103.09 110.888C102.559 110.327 101.828 109.997 101.056 109.969" fill="white"/>
<path d="M134.539 109.969C133.769 109.998 133.042 110.328 132.514 110.888C131.985 111.447 131.697 112.192 131.712 112.962C131.726 113.732 132.042 114.465 132.592 115.004C133.141 115.543 133.881 115.845 134.651 115.845C135.42 115.845 136.16 115.543 136.709 115.004C137.259 114.465 137.575 113.732 137.589 112.962C137.604 112.192 137.316 111.447 136.787 110.888C136.259 110.328 135.532 109.998 134.762 109.969" fill="white"/>
<path d="M134.732 136.291C134.144 134.045 133.188 131.91 131.904 129.975C130.476 127.906 128.642 126.148 126.514 124.808C123.946 123.104 120.951 122.156 117.871 122.072C114.79 121.987 111.748 122.77 109.091 124.33C106.896 125.556 104.97 127.209 103.426 129.192C102.035 131.056 100.966 133.139 100.263 135.356C100.27 135.19 100.298 135.026 100.344 134.867C100.441 134.409 100.567 133.957 100.72 133.515C101.278 131.881 102.091 130.346 103.131 128.968C104.664 126.892 106.614 125.16 108.857 123.883C111.583 122.256 114.715 121.438 117.888 121.524C121.062 121.61 124.145 122.598 126.778 124.371C128.943 125.763 130.793 127.592 132.209 129.741C133.176 131.176 133.907 132.755 134.376 134.42C134.501 134.871 134.599 135.33 134.671 135.793C134.706 135.957 134.726 136.124 134.732 136.291Z" fill="white"/>
</svg>
